<mxfile host="app.diagrams.net" modified="2021-03-17T21:05:00.455Z" agent="5.0 (Windows NT 10.0; Win64; x64) AppleWebKit/537.36 (KHTML, like Gecko) Chrome/89.0.4389.82 Safari/537.36" etag="wk3d34cvw7kBvazinQ1t" version="14.4.9" type="github">
  <diagram id="VcwXtsxAqvqli3GGBTht" name="Page-1">
    <mxGraphModel dx="1422" dy="804" grid="1" gridSize="10" guides="1" tooltips="1" connect="1" arrows="1" fold="1" page="1" pageScale="1" pageWidth="850" pageHeight="1100" math="0" shadow="0">
      <root>
        <mxCell id="0" />
        <mxCell id="1" parent="0" />
        <mxCell id="AtN4Yc3aaycDDXfkC4gF-1" value="" style="rounded=1;whiteSpace=wrap;html=1;" vertex="1" parent="1">
          <mxGeometry x="50" y="100" width="222.31" height="170" as="geometry" />
        </mxCell>
        <mxCell id="AtN4Yc3aaycDDXfkC4gF-2" value="10" style="rounded=0;whiteSpace=wrap;html=1;direction=south;fillColor=#dae8fc;strokeColor=#6c8ebf;" vertex="1" parent="1">
          <mxGeometry x="70" y="200" width="60" height="50" as="geometry" />
        </mxCell>
        <mxCell id="AtN4Yc3aaycDDXfkC4gF-3" value="10" style="rounded=0;whiteSpace=wrap;html=1;fillColor=#dae8fc;strokeColor=#6c8ebf;" vertex="1" parent="1">
          <mxGeometry x="70" y="140" width="60" height="50" as="geometry" />
        </mxCell>
        <mxCell id="AtN4Yc3aaycDDXfkC4gF-4" value="20" style="rounded=0;whiteSpace=wrap;html=1;direction=south;fillColor=#dae8fc;strokeColor=#6c8ebf;" vertex="1" parent="1">
          <mxGeometry x="140" y="170" width="110" height="80" as="geometry" />
        </mxCell>
        <mxCell id="AtN4Yc3aaycDDXfkC4gF-5" value="15" style="rounded=0;whiteSpace=wrap;html=1;fillColor=#f8cecc;strokeColor=#b85450;" vertex="1" parent="1">
          <mxGeometry x="140" y="60" width="60" height="100" as="geometry" />
        </mxCell>
        <mxCell id="AtN4Yc3aaycDDXfkC4gF-6" value="" style="rounded=1;whiteSpace=wrap;html=1;" vertex="1" parent="1">
          <mxGeometry x="360" y="100" width="222.31" height="170" as="geometry" />
        </mxCell>
        <mxCell id="AtN4Yc3aaycDDXfkC4gF-7" value="10" style="rounded=0;whiteSpace=wrap;html=1;direction=south;fillColor=#dae8fc;strokeColor=#6c8ebf;" vertex="1" parent="1">
          <mxGeometry x="740" y="110" width="60" height="50" as="geometry" />
        </mxCell>
        <mxCell id="AtN4Yc3aaycDDXfkC4gF-8" value="10" style="rounded=0;whiteSpace=wrap;html=1;fillColor=#dae8fc;strokeColor=#6c8ebf;" vertex="1" parent="1">
          <mxGeometry x="500" y="200" width="60" height="50" as="geometry" />
        </mxCell>
        <mxCell id="AtN4Yc3aaycDDXfkC4gF-11" value="" style="rounded=1;whiteSpace=wrap;html=1;" vertex="1" parent="1">
          <mxGeometry x="600" y="100" width="222.31" height="170" as="geometry" />
        </mxCell>
        <mxCell id="AtN4Yc3aaycDDXfkC4gF-14" value="20" style="rounded=0;whiteSpace=wrap;html=1;direction=south;fillColor=#dae8fc;strokeColor=#6c8ebf;" vertex="1" parent="1">
          <mxGeometry x="380" y="170" width="110" height="80" as="geometry" />
        </mxCell>
        <mxCell id="AtN4Yc3aaycDDXfkC4gF-15" value="15" style="rounded=0;whiteSpace=wrap;html=1;fillColor=#dae8fc;strokeColor=#6c8ebf;" vertex="1" parent="1">
          <mxGeometry x="690" y="150" width="60" height="100" as="geometry" />
        </mxCell>
        <mxCell id="AtN4Yc3aaycDDXfkC4gF-16" value="" style="shape=flexArrow;endArrow=classic;html=1;" edge="1" parent="1">
          <mxGeometry width="50" height="50" relative="1" as="geometry">
            <mxPoint x="290" y="184.5" as="sourcePoint" />
            <mxPoint x="350" y="184.5" as="targetPoint" />
          </mxGeometry>
        </mxCell>
        <mxCell id="AtN4Yc3aaycDDXfkC4gF-17" value="" style="rounded=1;whiteSpace=wrap;html=1;" vertex="1" parent="1">
          <mxGeometry x="70" y="390" width="222.31" height="170" as="geometry" />
        </mxCell>
        <mxCell id="AtN4Yc3aaycDDXfkC4gF-18" value="10" style="rounded=0;whiteSpace=wrap;html=1;direction=south;fillColor=#dae8fc;strokeColor=#6c8ebf;" vertex="1" parent="1">
          <mxGeometry x="90" y="490" width="60" height="50" as="geometry" />
        </mxCell>
        <mxCell id="AtN4Yc3aaycDDXfkC4gF-19" value="10" style="rounded=0;whiteSpace=wrap;html=1;fillColor=#dae8fc;strokeColor=#6c8ebf;" vertex="1" parent="1">
          <mxGeometry x="90" y="430" width="60" height="50" as="geometry" />
        </mxCell>
        <mxCell id="AtN4Yc3aaycDDXfkC4gF-20" value="" style="rounded=1;whiteSpace=wrap;html=1;" vertex="1" parent="1">
          <mxGeometry x="310" y="390" width="222.31" height="170" as="geometry" />
        </mxCell>
        <mxCell id="AtN4Yc3aaycDDXfkC4gF-21" value="10" style="rounded=0;whiteSpace=wrap;html=1;direction=south;fillColor=#dae8fc;strokeColor=#6c8ebf;" vertex="1" parent="1">
          <mxGeometry x="400" y="460" width="110" height="80" as="geometry" />
        </mxCell>
        <mxCell id="AtN4Yc3aaycDDXfkC4gF-22" value="15" style="rounded=0;whiteSpace=wrap;html=1;fillColor=#dae8fc;strokeColor=#6c8ebf;" vertex="1" parent="1">
          <mxGeometry x="330" y="440" width="60" height="100" as="geometry" />
        </mxCell>
        <mxCell id="AtN4Yc3aaycDDXfkC4gF-23" value="10" style="rounded=0;whiteSpace=wrap;html=1;fillColor=#dae8fc;strokeColor=#6c8ebf;" vertex="1" parent="1">
          <mxGeometry x="620" y="200" width="60" height="50" as="geometry" />
        </mxCell>
      </root>
    </mxGraphModel>
  </diagram>
</mxfile>
